<svg width="149" height="67" viewBox="0 0 149 67" fill="none" xmlns="http://www.w3.org/2000/svg">
<path d="M149 47.0001L137.657 49.1602L145.199 57.9036L149 47.0001ZM0.407471 31.3057C28.446 51.934 46.22 57.643 58.8118 56.0674C71.4383 54.4874 78.5626 45.5921 85.2434 38.169L83.7568 36.8311C76.9376 44.408 70.3119 52.6128 58.5634 54.0829C46.7802 55.5573 29.5542 50.2664 1.59269 29.6947L0.407471 31.3057ZM85.2434 38.169C92.2348 30.4008 93.9551 19.8958 92.496 11.9936C91.7677 8.04944 90.2248 4.63 88.0175 2.52091C86.9043 1.45726 85.6043 0.711832 84.1498 0.434998C82.6894 0.157055 81.1461 0.365607 79.579 1.09318L80.4212 2.90719C81.6541 2.33476 82.7733 2.20893 83.7758 2.39974C84.7842 2.59165 85.7475 3.11809 86.6358 3.96693C88.4316 5.68282 89.845 8.65084 90.5292 12.3567C91.8951 19.7544 90.2654 29.5994 83.7568 36.8311L85.2434 38.169ZM79.579 1.09318C75.5772 2.95113 73.783 7.39809 73.3461 12.6536C72.9052 17.9563 73.8069 24.4042 75.5313 30.8071C77.2583 37.2197 79.8291 43.655 82.7793 48.9461C85.7061 54.1951 89.0909 58.4724 92.5145 60.3743L93.4857 58.626C90.5717 57.0071 87.4126 53.1489 84.5261 47.9721C81.663 42.8374 79.151 36.5566 77.4625 30.2869C75.7713 24.0075 74.9245 17.8071 75.3392 12.8194C75.7578 7.78453 77.423 4.29924 80.4212 2.90719L79.579 1.09318ZM92.5145 60.3743C97.579 63.1879 103.972 66.4787 112.229 66.5412C120.505 66.6039 130.493 63.4284 142.804 53.6648L141.561 52.0978C129.501 61.6624 119.944 64.5996 112.245 64.5413C104.526 64.4828 98.513 61.4189 93.4857 58.626L92.5145 60.3743Z" fill="white"/>
</svg>
