<svg width="135" height="22" viewBox="0 0 135 22" fill="none" xmlns="http://www.w3.org/2000/svg">
<path d="M100 0.5V20.5" stroke="url(#paint0_linear_9_26)" stroke-width="2"/>
<path d="M59.5 0.5V20.5" stroke="url(#paint1_linear_9_26)" stroke-width="2"/>
<path d="M72 1H80M88 1H80M80 1V20.5" stroke="url(#paint2_linear_9_26)" stroke-width="2"/>
<line y1="1" x2="13" y2="1" stroke="url(#paint3_linear_9_26)" stroke-width="2"/>
<line y1="10" x2="13" y2="10" stroke="url(#paint4_linear_9_26)" stroke-width="2"/>
<line y1="19" x2="13" y2="19" stroke="url(#paint5_linear_9_26)" stroke-width="2"/>
<path d="M28 10.5012V20.0013C34 20.5013 45.5107 19.6958 45 10.5013C44.5 1.5 38 1.00134 27.5 1.00134" stroke="url(#paint6_linear_9_26)" stroke-width="2"/>
<circle cx="124.5" cy="10.5" r="9.5" stroke="url(#paint7_linear_9_26)" stroke-width="2"/>
<defs>
<linearGradient id="paint0_linear_9_26" x1="100" y1="0.5" x2="101.995" y2="0.599751" gradientUnits="userSpaceOnUse">
<stop stop-color="#FD6585"/>
<stop offset="1" stop-color="#0D25B9"/>
</linearGradient>
<linearGradient id="paint1_linear_9_26" x1="59.5" y1="0.5" x2="61.495" y2="0.599751" gradientUnits="userSpaceOnUse">
<stop stop-color="#FD6585"/>
<stop offset="1" stop-color="#0D25B9"/>
</linearGradient>
<linearGradient id="paint2_linear_9_26" x1="72" y1="1" x2="91.1246" y2="16.6919" gradientUnits="userSpaceOnUse">
<stop stop-color="#FD6585"/>
<stop offset="1" stop-color="#0D25B9"/>
</linearGradient>
<linearGradient id="paint3_linear_9_26" x1="0" y1="2" x2="0.152941" y2="3.98824" gradientUnits="userSpaceOnUse">
<stop stop-color="#FD6585"/>
<stop offset="1" stop-color="#0D25B9"/>
</linearGradient>
<linearGradient id="paint4_linear_9_26" x1="0" y1="11" x2="0.152941" y2="12.9882" gradientUnits="userSpaceOnUse">
<stop stop-color="#FD6585"/>
<stop offset="1" stop-color="#0D25B9"/>
</linearGradient>
<linearGradient id="paint5_linear_9_26" x1="0" y1="20" x2="0.152941" y2="21.9882" gradientUnits="userSpaceOnUse">
<stop stop-color="#FD6585"/>
<stop offset="1" stop-color="#0D25B9"/>
</linearGradient>
<linearGradient id="paint6_linear_9_26" x1="27.5" y1="1.00134" x2="46.5412" y2="18.4513" gradientUnits="userSpaceOnUse">
<stop stop-color="#FD6585"/>
<stop offset="1" stop-color="#0D25B9"/>
</linearGradient>
<linearGradient id="paint7_linear_9_26" x1="114" y1="0" x2="135" y2="21" gradientUnits="userSpaceOnUse">
<stop stop-color="#FD6585"/>
<stop offset="1" stop-color="#0D25B9"/>
</linearGradient>
</defs>
</svg>
